<?xml version="1.0" encoding="UTF-8"?>
<!DOCTYPE svg PUBLIC "-//W3C//DTD SVG 1.1//EN" "http://www.w3.org/Graphics/SVG/1.1/DTD/svg11.dtd">
<svg xmlns="http://www.w3.org/2000/svg" version="1.1" width="2100px" height="2100px" style="shape-rendering:geometricPrecision; text-rendering:geometricPrecision; image-rendering:optimizeQuality; fill-rule:evenodd; clip-rule:evenodd" xmlns:xlink="http://www.w3.org/1999/xlink">
<g><path style="opacity:1" fill="#efc139" d="M 1017.5,1.5 C 1303.49,-2.70973 1551.82,90.4569 1762.5,281C 1811.61,327.085 1855.94,377.085 1895.5,431C 1725.45,527.023 1555.12,622.523 1384.5,717.5C 1374.12,700.434 1363.96,683.101 1354,665.5C 1262.97,528.95 1135.81,448.783 972.5,425C 809.481,408.278 667.481,454.278 546.5,563C 444.323,660.68 388.157,780.513 378,922.5C 327.533,946.537 277.033,970.371 226.5,994C 227.126,994.75 227.626,995.584 228,996.5C 283.318,1022.99 338.318,1049.99 393,1077.5C 408.617,1138.72 433.951,1195.38 469,1247.5C 470.125,1250.78 471.125,1254.12 472,1257.5C 606.5,1446.22 784.334,1576.05 1005.5,1647C 1249.37,1720.18 1488.37,1706.84 1722.5,1607C 1842.47,1553.77 1948.64,1480.61 2041,1387.5C 2007.22,1488.16 1959.22,1581.16 1897,1666.5C 1749.89,1864.89 1556.72,1997.06 1317.5,2063C 1085.68,2121.66 859.351,2105.32 638.5,2014C 409.642,1913.5 236.476,1753 119,1532.5C 5.7945,1308.53 -25.5388,1073.53 25,827.5C 80.1353,585.604 203.302,386.77 394.5,231C 576.728,87.2945 784.394,10.7945 1017.5,1.5 Z"/></g>
<g><path style="opacity:1" fill="#efc139" d="M 634.5,714.5 C 660.999,714.324 679.499,726.324 690,750.5C 697.547,782.234 686.713,805.068 657.5,819C 626.059,827.027 603.226,816.527 589,787.5C 580.668,760.696 587.835,739.196 610.5,723C 618.08,718.617 626.08,715.783 634.5,714.5 Z"/></g>
</svg>
